<svg preserveAspectRatio="none" data-bbox="9.159 3.189 554.475 554.612"
  viewBox="9.159 3.189 554.475 554.612" height="748" width="756" xmlns="http://www.w3.org/2000/svg"
  data-type="shape" role="presentation" aria-hidden="true" aria-label="" fill="#4a7c59">
  <g>
    <path
      d="M264 4c-40.3 3.1-83.4 16.7-118.4 37.5C73 84.5 25 155.6 11.5 240.5c-2.2 13.8-3.1 51.8-1.6 67.1 9.3 91.5 61.5 171 141.6 215.6 43.8 24.5 90.6 35.8 142 34.5 42.2-1.1 75.7-9.2 113-27.1 30.9-14.9 56.3-33.1 79.6-57.3 77.1-79.8 99-199 55.3-301.2-31-72.7-90.8-128.4-164.8-153.8C340.4 6 302.1 1.1 264 4m37.8 5c33.6 2.3 59.7 8.2 88.7 20.2C464 59.5 521.2 121.7 545.8 198c13.6 41.9 16.4 89.7 8 134-8.1 42.9-26.8 83.5-54.6 118.5-9.3 11.7-32.3 34.4-45 44.4-41.5 32.8-89.9 51.9-144.7 57.2-14.9 1.4-47.1.6-61.5-1.6-22.8-3.5-40.3-8.1-61-16.2C105.9 502.9 43.9 432.6 22.5 348-9.1 223.4 50 94.4 165.2 36.8c32.4-16.1 71.1-26.3 107.3-28.1 12.9-.7 15.5-.6 29.3.3"></path>
    <path
      d="M258 15.1c-22.8 2.4-47.7 8.6-70.2 17.5C129.2 55.8 83.2 96.4 52.3 152c-14.4 26.1-24.1 53.8-29.2 84-11.7 69 4.3 139.6 44.7 197.3 28.3 40.4 66.3 71.4 111.7 91.2 50.4 21.9 105.8 27.6 161 16.4 37.2-7.5 73.7-24 105-47.4 57-42.7 93.1-103.6 104.2-175.5 2.2-14.7 2.5-58.8.4-72.5-4.8-32.5-13.1-58.9-27.3-86.8-13.3-26.3-27.5-45.7-49.2-67.2-43.3-43-97-68.9-157.6-75.9-14.6-1.7-43.6-1.9-58-.5m22 5.4c0 .9-4.4 6-9.8 11.3-11 11-21.3 17.4-34.7 21.6-9.1 2.9-19.3 4.7-20 3.5-.8-1.3 9.1-12.5 16.2-18.4q15.9-13.05 38.4-18c8.5-1.8 9.9-1.8 9.9 0m21.5 0c17.9 2.7 39.6 15.7 50.6 30.2 2.1 2.9 3.9 5.5 3.9 5.9 0 1.4-12.5-.7-21.5-3.7-15.3-5.1-27.7-13.9-39.4-27.8-4.3-5.1-4.3-6.5-.1-5.7 1.4.3 4.3.7 6.5 1.1m-62 6.2c-9.3 5.5-22.1 17.3-27.6 25.4l-3.8 5.6-7.3.6c-25.2 2.2-51.9 17.8-65.5 38.4-3.2 4.8-3.9 5.3-7.2 5.3-10.7 0-24.8 4.1-37.8 10.9-4.2 2.2-7.8 3.9-8 3.8-.6-.6 19-21.9 26.3-28.5 37-33.5 77.5-54.1 125.9-64.2 3.3-.7 6.5-1.4 7-1.5.6-.2 2.1-.4 3.5-.4 1.7-.1.2 1.2-5.5 4.6m106.5-.6c44.1 10.4 84.3 31.8 117 62.4 8.2 7.6 26 26.6 26 27.7 0 .4-3.9-1.4-8.6-3.9-10.5-5.6-22.2-9.2-32.7-10l-7.8-.6-3.8-5.4c-10.8-15.3-27-27.5-44.1-33.5-7.6-2.6-18.2-4.8-23.6-4.8-4.3 0-4.5-.2-9.4-7-6.4-8.6-16.2-17.7-25.7-23.7-4-2.5-7.3-4.7-7.3-4.8 0-.7 7.6.7 20 3.6m-56.6 3.4c7.5 18.7 7.1 45.1-1 63.3-2.9 6.6-3.1 6.4-6.8-4.8-4-12.1-4.9-18.9-4.3-32.3.4-9.1 1.2-14.1 3-19.7 2.8-8.7 4.7-13 5.8-13 .4 0 1.9 2.9 3.3 6.5M273 44.7c-1.2 6.9-.9 28.9.6 36.1l.7 3.4-6.4-5.2c-8.4-6.8-15.7-11-26.5-15.3-7.9-3.2-8.6-3.7-6.4-4.5 12.7-4.5 16.3-6.2 22.9-10.5 4.2-2.7 9.3-6.5 11.4-8.4 2.2-1.9 4.1-3.2 4.4-2.9.3.2 0 3.6-.7 7.3m31.1-2.9c10 8.2 17.8 12.3 33.9 17.9.9.3-1.3 1.5-5 2.8-11.2 3.8-19.6 8.7-29.9 17.4l-5.4 4.5.6-4c1.6-10.1 1.8-29.1.4-36.2-.7-3.9-1.2-7.2-1-7.2s3.1 2.2 6.4 4.8M204 63.9c0 .6-2.2 3.6-4.9 6.8-7.9 9.5-19.3 18.2-30.5 23.3-7.4 3.4-20.9 7-26.1 7-3.4 0-3.5-.1-2.4-2.3 2.1-3.9 17.2-18.2 23.9-22.5 7.7-5 19.6-9.8 28.9-11.6 8.3-1.7 11.1-1.9 11.1-.7m21.9.6c14.5 3 29.5 10.4 39.6 19.3 4.5 4 14.5 15.3 14.5 16.4 0 2.2-15.4-.7-25.6-4.8-9-3.6-16.6-8.1-23.7-14.2-5.9-5-15.7-15.9-15.7-17.4 0-1.2 3-1 10.9.7m130.1-.6c0 3-13.8 17.1-22.3 23-10.3 7-29.9 14.1-39.2 14.1h-3.6l4.8-6.1c12.1-15.4 31.1-27 49.8-30.4 8.8-1.6 10.5-1.7 10.5-.6m22.7.5c21.8 4.7 38.5 15.6 53.3 35 1.5 1.9 1.3 1.9-5.2 1.2-16.1-1.6-33.4-9.7-46.2-21.6-5.3-4.9-12.6-13.6-12.6-15.1 0-1.3 2.8-1.1 10.7.5M214.5 78.2c3.8 12.1 5 23.9 3.5 35.5-1.3 10.2-4.9 23.4-7.4 26.8-1.4 1.9-1.6 1.8-3.6-2.9-2.8-6.5-5.7-18.5-6.5-26.6-1.1-11.3 1.8-28.6 6.7-40 1.9-4.3 2-4.4 3.4-2.5.8 1.1 2.6 5.4 3.9 9.7m150.3-6c5 12.7 5.7 16.7 5.7 32.8-.1 14.9-.2 15.9-3.3 24.9-4.6 13.2-4.6 13.2-7.1 8.4-5.7-11.3-8.4-31.2-6.2-46.3 1.3-8.4 6.6-25 8.1-25 .4 0 1.7 2.4 2.8 5.2M196.9 86.7c-1.6 7.3-1.6 26.9 0 34.6.7 3.2 1 6.1.8 6.4-.3.3-1.6-.5-2.9-1.7-7.7-7.4-20.1-14.9-32.3-19.6-3.6-1.3-5.4-2.4-4.5-2.8.8-.3 4.2-1.5 7.5-2.7 8.1-2.9 20.5-10.3 26.8-16 2.9-2.6 5.4-4.5 5.5-4.4.2.2-.2 3-.9 6.2m43.2 7.6c5.4 3.1 12.3 6.1 21.4 9.2 1.6.6.6 1.2-4.5 3-12 4.1-22.4 10.2-30.8 17.9-2.3 2.1-4.5 3.6-4.8 3.3s0-2.2.6-4.4c2-7 2.4-26 .6-34.3-.9-4.1-1.6-7.8-1.6-8.3 0-.4 2.9 1.6 6.4 4.5s9.2 7 12.7 9.1m109.3-8.1c-2.3 10.7-1.6 32.1 1.2 41.1.4 1.1-2.2-.5-6.4-4-9.2-7.6-16.4-11.9-27-15.9-4.8-1.8-8-3.5-7.2-3.7 12.7-3.9 22.7-9.1 32.6-17.2 4.3-3.5 8-6.4 8-6.5.1 0-.5 2.8-1.2 6.2m41 6.8c6.8 4.2 13.8 7.4 23.1 10.5 1.5.5.2 1.3-5.5 3.4-10.1 3.6-19.9 9.2-27.8 15.9l-6.5 5.5.7-3.4c2.6-14.2 2.6-28.1 0-40.9l-.7-3.5 4.4 3.8c2.4 2 8 5.9 12.3 8.7M128 107.8c0 .5-2.6 4-5.7 7.7-13 15.4-34.5 27.2-52.9 29.1l-6.8.7 1.9-2.9c5.6-8.7 17-18.8 28.5-25.2 10.4-5.8 35-12.4 35-9.4m26.5 1.9c8.6 2.1 18.7 6.6 26.5 11.8 7.1 4.7 23 20.6 23 23 0 1-1 1.2-3.7.9-22-3.1-42.3-14-55.4-29.8-3.2-3.9-5.9-7.5-5.9-7.9 0-1 7.3 0 15.5 2m125.5-1.8c0 2-8.4 11.3-15.6 17.5-9 7.7-20 13.6-31.4 16.9-9.9 2.8-18 4.1-18 2.7 0-.5 2.3-3.6 5.1-7 12.6-15.2 30.7-25.8 50.4-29.5 8.8-1.7 9.5-1.7 9.5-.6m27.8 2.2c13.1 3.4 23.5 9 34.9 18.6 5.2 4.4 13.3 14.1 13.3 16 0 1.1-9.5 0-16.4-1.8-7.1-1.9-17.6-6.8-24.6-11.4-7.1-4.7-23-20.6-23-23 0-1.7 5.5-1.1 15.8 1.6m123.5 0c-2.4 3.7-11.4 13-16.8 17.4-6.3 5-15.4 10.1-23.5 13-8.7 3.1-23 5.8-23 4.2 0-.5 1.7-3.1 3.7-5.6 13.4-16.4 30.6-26.8 50.8-30.6 11.1-2.1 11.1-2.1 8.8 1.6m23.4-1.5c16 3.3 31.1 11.2 42.9 22.6 6.1 5.8 12.1 13.4 11.3 14.2-.9.9-17.2-2.5-23.6-4.9-13.9-5.3-27.2-14.6-36.3-25.6-7.3-8.7-7.1-9 5.7-6.3M138.4 122c1.4 4.4 3.1 12.7 3.7 18.5 1 8.8.9 12-.6 20.7-1.7 10.5-6.2 24.1-8 24.2-1.7.1-6.3-13.7-8.1-24-2.5-14.7-.4-31.9 5.7-46.2 1.9-4.2 2.2-4.5 3.3-2.9.8.9 2.5 5.3 4 9.7m151.5-2.5c1.7 4.7 3.6 11.8 4.2 15.8 1.3 7.9.6 25.7-1.1 32.2-2 7.3-6.2 18.5-7 18.5-1.5 0-5.3-10.5-7.2-20-2.3-11.3-2.1-29.8.6-39.3 2-7.3 5.6-15.7 6.6-15.7.5 0 2.2 3.8 3.9 8.5m151.7-1.9c5.7 15.3 7 35.1 3.4 50.2-2 8.5-5.7 18.2-6.9 18.2-.8 0-4.8-10.1-6.7-17-2.2-8.3-2.9-23.4-1.5-33 1.4-9.4 6.8-25.3 8.4-24.7.6.2 2.1 3 3.3 6.3M121 128.7c-1.9 6.6-2.3 25.9-.7 34.8.8 4.4 1.3 8.2 1.1 8.4-.1.2-2.8-1.8-5.8-4.5-7.3-6.4-16.3-11.8-26.3-15.6-4.5-1.7-8-3.4-7.8-3.8.3-.4 1.7-1.1 3.2-1.5 8.5-2.1 27.8-13.3 33.8-19.5 1.6-1.6 3-2.8 3.2-2.6.3.2-.1 2.1-.7 4.3m44.8 10.6c3.7 2 9.4 4.5 12.7 5.7 3.3 1.3 6.3 2.6 6.8 2.9.4.4-3 2.2-7.5 3.9-10.1 3.8-19.1 9.1-26.4 15.6-3 2.7-5.7 4.6-5.9 4.4s.2-4 1-8.3c2.2-12.3 1.9-22.1-1.1-36.4l-.7-3.4 7.2 6.1c3.9 3.3 10.2 7.6 13.9 9.5m107.1-7.4c-1.2 6.1-.7 29.6.7 37.1l.7 3.4-4.9-4c-10-8.3-20.8-14.5-31.2-17.8-4.6-1.6-6.2-3.6-2.9-3.6.7 0 4.9-1.6 9.5-3.4 8.5-3.6 17.9-9.4 24.5-15.3 2.2-1.9 4.1-3.2 4.4-3 .2.3-.1 3.2-.8 6.6m32-1.5c7.4 6.1 18.5 12.3 27.9 15.6l6.3 2.3-8.4 3.2c-9.5 3.5-20.9 10.3-28 16.6-2.6 2.3-4.9 4-5.1 3.8s.2-3.8 1-7.9c.7-4.1 1.3-11.6 1.3-16.5 0-8-.3-10.9-2.4-20.3-.3-1.2-.2-2.2.1-2.2.4 0 3.7 2.4 7.3 5.4m121.6-3.5c-2.7 8.6-3.2 27.8-1 38.1.7 3.6 1.2 6.7 1 6.9-.3.2-2.3-1.3-4.6-3.4-6.4-5.7-18.6-13.2-26.4-16.1-3.8-1.4-7.9-3-9-3.4-1.6-.5-.9-1 3.5-2.5 10.8-3.5 23.3-10.6 31.5-17.9 4.5-4 5.9-4.5 5-1.7m29.6 2.4c6.6 5.8 18.8 12.9 26.9 15.7 3.6 1.3 6.9 2.7 7.3 3.1.5.4-1.5 1.5-4.5 2.4-10.8 3.6-20.3 9-30.9 17.7-2.5 2.1-4.8 3.8-5.1 3.8-.4 0-.3-1.4.2-3.1 3-10.3 3.1-27.4.4-40.7-.4-1.7-.3-3.2.1-3.2s2.9 2 5.6 4.3M73.8 152.5c15.4 3.2 29.6 10.4 40.3 20.3 6.1 5.6 13.9 14.7 13.9 16.1 0 1.2-11.7-.7-19.5-3.1-8-2.5-17-6.7-23.5-11.1-8.4-5.8-22-19.9-22-22.9 0-1.2 2.9-1 10.8.7m130.2-.6c0 1.9-10.2 13.2-16.8 18.7-11.1 9.2-28.5 16.5-44.4 18.8-2.9.3-3.8.1-3.8-1 0-.8 4.4-5.8 9.8-11.3 13.8-14 25.5-20.5 44.3-24.6 7.8-1.6 10.9-1.8 10.9-.6m26.5 1.8c12.7 2.9 25 9.4 36.6 19.6 5.7 5 12.9 13.6 12.9 15.4 0 1.5-11.4-.3-20.8-3.3-14.6-4.7-31.1-16.1-40.1-27.7-2.2-3-4.1-5.7-4.1-6.1 0-.9 5.8-.1 15.5 2.1m125.5-1.8c0 1.7-7.6 10.5-14.2 16.6-12.5 11.5-38 21.9-50.2 20.6-2.6-.3 11.5-15.6 19.9-21.6 11.1-7.9 22.2-12.7 34.9-15 9-1.7 9.6-1.7 9.6-.6m28.3 2.2c13.4 3.2 29.1 12.3 38.8 22.6 5.6 5.8 10.1 11.8 9.4 12.5-1 1-13.1-1.3-21.9-4.3-10.5-3.5-21.7-10.1-29.5-17.4-5.6-5.2-13.1-14.1-13.1-15.5 0-1.1 6.7-.2 16.3 2.1m124.7-2.5c0 1.5-7.6 10.7-12.3 15-13.8 12.4-29.7 19.9-47.4 22.3-3.3.5-5.3.4-5.3-.2 0-1.3 6-8.6 11.8-14.3 6.6-6.5 17.9-13.8 27-17.3 10.6-4 26.2-7.3 26.2-5.5m-448.9 8.1c8.2 19 7.9 47.6-.5 65.7l-2.4 5.1-2.5-5.5c-4.5-9.4-6.1-18.2-6.1-32.5 0-13.5 1.2-20.6 5.4-31.8 1.2-3.1 2.6-5.7 3.1-5.7s1.9 2.1 3 4.7m152.7 1c5.8 15.2 7.5 30.6 4.8 45.4-1.8 10-6.4 23.1-8.1 23.1-1.3 0-5.2-10.1-7.2-18.7-2.3-10.2-2.1-28.8.6-38.8 2.3-8.7 5.6-16.7 6.8-16.7.5 0 1.8 2.6 3.1 5.7m152.6 1.1c4.5 11.8 5.8 20.3 5.3 34.2-.5 12.7-2.2 20.7-6.4 30l-2.1 4.5-2.5-5.7c-4.9-10.7-6.1-17.2-6.1-32.3 0-10.4.4-15.7 1.7-20.4 2.6-9 5.7-17.1 6.7-17.1.4 0 2 3.1 3.4 6.8m152-1.6c5.6 12.8 7.7 31.1 5.2 45.5-1.5 8.8-5.7 21.8-7.6 23.7-1.2 1.2-4.5-6.4-7.2-16.4-2.9-10.7-2.9-30.4 0-41.3 2.2-8.1 5.7-16.7 6.7-16.7.3 0 1.7 2.4 2.9 5.2M82.2 178.8c6.1 4.2 20.2 11 24.5 11.8 4 .8 4.3 1.9.6 2.9-9 2.2-23.8 10.4-32.9 18.1-2.8 2.4-5.4 4.4-5.7 4.4s-.1-1.5.4-3.3c.5-1.7 1.4-7.6 1.9-12.9.9-9.1.5-15.5-1.6-28.3l-.7-4 4.4 4c2.4 2.3 6.5 5.5 9.1 7.3m114.7-4.1c-1.6 7.6-1.6 27.2 0 34.6.7 3.2 1.1 6.1.8 6.3-.3.3-1.8-.7-3.3-2.2-8.7-8.1-22.3-16.1-32.1-19-6.1-1.8-6.7-2.9-2-3.8 6.3-1.3 23.1-10.4 30.2-16.4 3.9-3.2 7.2-5.8 7.3-5.6.2.1-.2 2.9-.9 6.1m39.1 5c6.3 4.2 13.5 7.7 20.3 9.9 3.1 1 5.7 2.1 5.7 2.5s-2.4 1.5-5.2 2.5c-11 3.5-23.1 10.6-30.5 17.7-2.4 2.3-4.5 3.8-4.8 3.5s.1-3.7 1-7.7c1.9-9 1.9-21.1 0-31.6-.8-4.4-1.5-8.1-1.5-8.3s2.4 1.6 5.3 4.1c2.8 2.4 7.2 5.7 9.7 7.4m265.6-2.7c-2 10.1-2 20-.1 30.5.8 4.3 1.2 8.1 1 8.3-.2.3-3.1-2-6.4-5-6.3-5.7-20-13.4-28.9-16.3-3-.9-5-2-4.5-2.4.4-.4 3.1-1.6 5.8-2.6 9.2-3.3 20.3-9.6 27.2-15.4 3.7-3.2 6.9-5.7 7.1-5.6.2.2-.4 4-1.2 8.5m-152.2-1.8c-.8 3.5-1.4 11.2-1.4 17.3 0 6 .6 13.8 1.4 17.2 1.3 6.4.9 7.6-1.5 4.7-4.7-5.7-20.1-15.2-31.5-19.3-4.2-1.6-7.3-3-6.8-3.3s3.9-1.5 7.6-2.7c7.1-2.4 21.1-10.6 28-16.6 2.3-1.9 4.5-3.5 4.8-3.5.4 0 .1 2.8-.6 6.2m30.6-1.8c7.9 7 16.6 11.7 33.5 18.1 1.8.7 1.7.8-1 1.7-12.5 4.2-29.6 14-35.4 20.2-3.3 3.5-4.1 3.3-3.1-.7 2.8-9.9 3-26.8.5-40-.4-2-.4-3.7 0-3.7s2.9 2 5.5 4.4M44 205.2c1.1 8 4.1 17.7 7.9 26.1l2.2 4.8-3.5 8.2c-5.6 13-7 20.3-7 36.2-.1 15.8 1.2 22.4 7.1 36.3 3.2 7.5 3.4 8.4 2 10.5-2.1 3.2-6.3 15.2-7.7 22.2-.7 3.3-1.5 10.5-1.9 16l-.6 10-3.3-9c-7.1-19.1-12.3-45.6-14-71.3-2.3-33 3.8-74.9 15-103.9l2.3-5.8.2 6c.2 3.3.8 9.5 1.3 13.7m490.5-5.7c16.8 50.4 16.7 110.1-.2 161.8l-4.7 14.2-.8-10c-1-13-3-21.7-7.4-32.7l-3.6-8.9 3-6.7c10.3-22.8 10.5-47.9.6-72.3l-3.6-8.9 3.6-8.2c4.6-10.8 6.4-18.9 7.3-31.6.3-5.7 1-9.8 1.4-9 .4.7 2.4 6.2 4.4 12.3M128 195.8c0 .4-2.2 3.4-4.9 6.5-14.4 17.1-33.3 27.6-54.8 30.6-3.6.5-5.3.4-5.3-.3 0-1.4 9.4-12.3 14.5-16.8 6-5.3 15.7-11.3 23.8-14.6 10.3-4.3 26.7-7.6 26.7-5.4m22.8.8c13.7 2.8 28.7 10.3 38.7 19.2 5.4 4.9 14.5 15.4 14.5 16.8 0 1.6-11-.1-20.8-3.2-9.4-3-21.7-10-29.9-17.1-5.3-4.4-14.3-14.9-14.3-16.6 0-1.1 3.3-.9 11.8.9m127.3 2.7c-4.8 7.1-17.1 17.8-26.2 23-9.8 5.5-21.7 9.6-30.8 10.4-6.1.6-6.3.5-5.3-1.3 2.6-4.8 15.1-16.9 23-22.2 11.7-7.8 28.5-13.9 39-14.1l3.3-.1zm31.2-1.2c15.5 4.3 33.1 16.1 43 28.7l4.8 6.2h-3.9c-10.2 0-30.5-7.8-41.5-15.8-5.6-4.2-20.7-19.8-20.7-21.5 0-1.3 9.4 0 18.3 2.4m123.7-2.4c0 1.4-9.7 12.1-15.5 17.2-8 7-17.8 12.6-28.3 16.1-8.9 3-21.2 5-21.2 3.5 0-1.8 10.7-13.7 16.5-18.4 10.8-8.8 26.9-16.1 40.5-18.4 4.4-.7 8-.7 8 0m21.2.7c9.6 1.9 19.6 5.7 28.3 10.8 7 4.2 23.1 19.1 25.5 23.7l1.2 2.4-6.6-.6c-18.9-1.8-43-15.5-55.1-31.5-5.4-6.9-5.2-7.1 6.7-4.8m-315.7 13.8c4.8 15.1 5.4 31 1.9 45.3-1.9 7.5-5.4 17.4-6.5 18.1s-4.6-7.7-7.2-17.1c-1.6-6.3-2.1-10.7-2-20.5.1-13.2 1.8-22.1 6.3-32.5 2-4.8 2.2-4.9 3.6-3 .8 1.1 2.6 5.4 3.9 9.7m150.8-4.9c5.4 13.5 7.2 34.3 4.2 47.7-1.9 8.2-6.4 21-7.5 21s-4.7-8.6-6.8-16.2c-2.5-9.1-2.4-34.9.1-43.3 2.4-7.8 5.7-15.5 6.7-15.5.4 0 1.9 2.9 3.3 6.3m153.7 4.3c3.5 9.8 3.5 10 3.5 26.9 0 16.6-.1 17.2-3.3 26.5-1.8 5.2-3.7 9.9-4.2 10.4-1.2 1.2-4.5-5.8-7.2-15.1-1.9-6.5-2.3-10.1-2.3-22.3.1-8.5.6-16.3 1.3-19 2.6-9 6.4-18.1 7.6-17.7.6.2 2.7 4.8 4.6 10.3m-322.7 11.9c-1.7 9.7-1.3 26.8.7 33.8.6 2.2.9 4.1.6 4.4s-2.5-1.2-4.8-3.3c-8.2-7.6-19.8-14.3-30.6-17.9-5.8-1.9-5.8-2.6.3-4.5 9.7-3.1 27.3-13.7 32.9-19.9 1.1-1.2 2.1-2 2.2-1.8.2.1-.4 4.3-1.3 9.2m47.5 6.8c4.8 2.5 10.5 5 12.7 5.7 6.1 1.9 6.1 2.6.3 4.5-8.5 2.8-19.7 9-27.8 15.4-4.1 3.3-7.6 5.9-7.7 5.8-.1-.2.4-3.9 1.2-8.2 1.9-10.4 1.9-20.5 0-30.2-.8-4.3-1.5-8.1-1.5-8.6 0-.4 3.2 2 7.1 5.2 3.9 3.3 11 8 15.7 10.4m149.1-1.8c4.1 2.4 10.8 5.6 14.9 7.1 7.3 2.7 7.4 2.8 4.6 3.7-11.7 3.8-26.1 11.8-34.3 19.3-2.3 2-4.3 3.5-4.5 3.3s.2-3.8 1-7.9c2.1-11.8 1.6-28.4-1.2-37.9-.6-1.9.3-1.5 5.7 2.9 3.5 2.8 9.7 7.1 13.8 9.5m108.4-5c-1.7 9.7-1.3 26.8.7 33.8.6 2.2.9 4.2.6 4.5-.4.3-2.1-.8-3.9-2.4-8.6-8-18.4-14-30.1-18.2l-7.7-2.8 8.3-3.2c10.2-3.9 18.9-9 27.1-15.8 3.4-2.9 6.3-5.1 6.4-5s-.5 4.2-1.4 9.1m28.2-6.5c6.8 7.1 24.8 17.6 33.3 19.5 4.8 1 4.8 2.3 0 3.5-7 1.9-21.6 10-29.4 16.2-4 3.2-7.4 5.8-7.7 5.8-.2 0 .2-2.6.9-5.8 1.7-7.3 1.8-27.8 0-36-.7-3.4-1-6.2-.6-6.2.3 0 1.9 1.4 3.5 3m-180.3 4.7c-1.4 6.8-1.2 29.2.4 37.3l.7 3.4-4.9-4c-9.8-8.1-17.6-12.7-29.9-17.5-5.5-2.1-6.6-2.9-5-3.4 14.7-5.1 24.6-10.4 33.3-17.9 3-2.5 5.7-4.6 6.1-4.6s.1 3-.7 6.7M79.7 242c13.1 3.6 25.4 10.4 35.7 20 5.4 5 12.6 13.6 12.6 15.1 0 1.2-4.1.6-16-2.3-13.1-3.1-26.1-10.2-36.4-19.8-5.5-5.1-12.6-13.6-12.6-15.2 0-1.3 7-.4 16.7 2.2m124.3-2.1c0 2.7-11.4 14.7-20 21-7.3 5.4-14.8 9.4-23 12.3-6 2.1-21.1 5.1-21.8 4.3-1-.9 5.2-8.7 12.3-15.4 11.5-10.9 25.1-18 41.1-21.5 8.1-1.7 11.4-1.9 11.4-.7m29.8 2.7c16.6 4.8 31.5 14.6 42.2 27.9 5.3 6.6 5.2 7.6-.7 6.8-14.2-1.8-30.7-8.9-42.7-18.2-5.7-4.5-17.6-17.5-17.6-19.4 0-1.3 9.1.1 18.8 2.9m122.1-1.5c-2.4 4.5-16.7 18.3-23.8 23-4.2 2.7-11 6.3-15.3 7.9-7.6 2.9-23.5 6.3-25.1 5.3-1-.6 3-6.2 9.2-12.6 9.8-10.4 26.6-19.9 40.6-23 10.2-2.3 10.8-2.5 13.3-2.6 2-.1 2.1.1 1.1 2m27.6.6c8.1 1.9 24.7 10.2 31.6 15.7 6.4 5 18.2 18.3 17.5 19.5-.3.4-2.9.4-5.8 0-17.1-2.3-33.6-10.2-46.2-21.9-5.4-5-12.6-13.6-12.6-15.2 0-1.1 6.6-.3 15.5 1.9m125.5-1.9c0 .4-2.4 3.8-5.4 7.4-13.3 16.1-33.7 27.1-55.8 30.2-4.9.6-4.8-.4.3-7 6.3-8.2 17.7-17.3 28.4-22.6 10.8-5.4 32.5-10.7 32.5-8m8 6.9c4.7 10.6 6.4 20 6.3 34.3 0 11.6-.4 14.7-2.7 22.3-1.4 4.9-3.4 10.3-4.2 12-1.6 3-1.7 3-3.1 1.2-2.4-3.4-6.3-17.3-7.5-27-1.7-14.5.3-27.6 7.1-44.8.6-1.5 1.3-2.7 1.5-2.7.3 0 1.4 2.1 2.6 4.7m-456.9 1c5.1 11.9 7.4 28.6 5.8 42.2-1 8.2-6 25.6-7.9 27.5-1.3 1.3-4.5-6.3-7.1-16.1-2.9-11.4-3.5-23.9-1.5-34.9 1.7-9.7 6.2-23.4 7.8-23.4.5 0 1.8 2.1 2.9 4.7m152.8 1c4.5 12.5 5.5 18.3 5.4 31.8 0 9.7-.6 14.9-2.1 20.5-2.5 9.3-5.9 17.3-7 16.6s-4.5-9.9-6.8-18.6c-2.5-9.3-2.3-28.8.5-39.3 2.3-8.9 5.6-16.7 6.9-16.7.5 0 1.9 2.6 3.1 5.7m152.4.6c5.3 13.2 7.2 32.3 4.6 46.2-1.2 6.6-6.7 22.5-7.8 22.5-1.2 0-5.9-13.4-7.7-22-2-9.9-1.5-26.9 1-36.5 2.1-7.7 5.6-16.5 6.6-16.5.4 0 1.9 2.8 3.3 6.3m-168.2 13.6c-2.1 9.9-2.3 20.3-.7 30.5.9 5.4 1.5 10.1 1.3 10.3s-2.4-1.4-4.8-3.5c-8.8-7.7-20.2-14.2-30.7-17.7-5.8-1.9-5.8-2.6.3-4.5 7.6-2.4 21.3-10.1 28.2-15.9 3.7-3.2 6.9-5.4 7.1-4.9.2.4-.1 3-.7 5.7m43.5 7.7c3.6 2 9.7 4.9 13.5 6.4 3.8 1.4 7.1 2.9 7.4 3.2s-2.8 1.7-6.8 3.2c-9.5 3.4-19.7 9.4-27 15.8-3.2 2.8-6 4.8-6.2 4.6-.3-.2.2-3.9 1-8.2 1.9-9.7 1.9-20.7 0-31.1-.8-4.4-1.5-8.1-1.5-8.3s2.9 2.2 6.5 5.2 9.5 7.2 13.1 9.2m108.8-7.6c-1.7 8.3-1.7 26.6 0 34.7.7 3.5 1.1 6.3.9 6.3-.3 0-2.8-1.9-5.6-4.3-9.3-7.8-20.1-13.9-30.5-17.2-2.9-1-5-2-4.7-2.3s4.2-1.9 8.7-3.6c9.6-3.6 17.8-8.4 26.3-15.4 3.3-2.7 6.1-4.9 6.1-4.8.1 0-.4 3-1.2 6.6m30.3-2c8.4 7.7 17.7 12.7 34.3 18.6.8.3-2.3 1.9-7.1 3.8-9.6 3.6-21.1 10.4-28.1 16.5-2.5 2.3-4.8 4.1-5.1 4.1-.2 0 .2-2.6.9-5.8 2.3-9.7 1.6-33.3-1.1-40.5-1.1-2.8.4-2 6.2 3.3m121.8 4.5c-1.9 10.8-1.9 19.6 0 30 .8 4.3 1.2 8.1 1 8.3-.2.3-2.8-1.7-5.8-4.4-6.8-6.2-16-11.6-26.4-15.6-4.6-1.7-8.3-3.5-8.3-3.8 0-.4 1.5-1 3.3-1.4 8.1-1.6 30.5-14.8 35.6-21 .8-.9 1.6-1.5 1.8-1.3.2.3-.3 4.4-1.2 9.2m-428.4-5.8c4.1 4.5 19.8 14.1 27.8 16.9 4.2 1.5 8 3 8.4 3.4s-3.2 2.1-8 3.8c-8.9 3.2-19.2 9.4-27.2 16.4-2.4 2.1-4.7 3.8-5.1 3.8s-.1-2.8.7-6.3c1.5-6.3 1.3-30.1-.2-37.5-.9-3.9.3-4.1 3.6-.5m54.9 23.9c0 1.3-11 14.1-14.7 17-11.7 9.4-22.8 15.1-35.8 18.4-7.6 1.9-14.5 2.6-14.5 1.4 0-.3 2-3.1 4.5-6.2 13.4-17.1 37-29.6 58.3-31.1 1.2 0 2.2.2 2.2.5m24.8 1.4c14.7 3.5 28.3 10.9 38.9 21.1 5.7 5.5 12.3 13.1 12.3 14.3 0 1.4-8 .5-16.9-1.9-11.1-3-22.1-8.6-31.1-15.8-6.4-5.2-17-16.9-17-18.7 0-1.5 4.7-1.2 13.8 1m127.2-1.1c0 1.7-7.6 10.6-13.8 16.2-11.8 10.7-30.6 19.3-45.1 20.6l-6.3.6 1.3-2.4c.7-1.3 5.1-6.2 9.8-10.9 9.2-9.2 18.8-15.5 29.9-19.6 10.9-4.2 24.2-6.6 24.2-4.5m26.4 1.6c11.6 3 21.8 7.9 31.5 15.3 7.2 5.5 18.1 17.4 18.1 19.7 0 .9-1.6 1-5.7.3-13.9-2.1-29-8.4-40.5-17.1-5.4-4-18.8-18.3-18.8-19.9 0-1.5 5.9-.8 15.4 1.7m126.6-1.7c0 1.3-11 13.7-15.5 17.5-5.5 4.7-14.2 10.2-20.8 13.1-10.2 4.5-28.7 8.2-28.7 5.8 0-.4 2.4-3.7 5.3-7.3 9.9-12 26.8-22.8 41.9-26.8 11-3 17.8-3.8 17.8-2.3m19.6.3c18.5 3.2 32.6 10.8 46.7 25 5.3 5.5 9.7 10.4 9.7 10.9 0 3-18.9-1-30.8-6.6-10.2-4.7-18.7-11-27.1-20.1-9.7-10.5-9.6-11.2 1.5-9.2m-314.1 14c5 15.9 5.5 31.9 1.5 47.3-1.9 7.1-5.6 16.6-6.6 16.6-.9 0-4.4-9.2-6.6-17.3-4.2-15.9-2.4-38.5 4.2-53.5 2-4.5 2.2-4.6 3.6-2.7.8 1.1 2.5 5.4 3.9 9.6m150.5-5.4c4.7 12.5 5.5 17.3 5.4 31.8 0 10.2-.5 15.7-1.8 20.5-2.2 8.1-5.6 16-6.8 16-1.3 0-4.3-7.7-6.8-17.6-3.1-12.4-2.5-31.9 1.5-44.3 2.7-8.4 4.4-12.1 5.7-12.1.3 0 1.6 2.6 2.8 5.7m151.9-1.5c4.4 10.4 5.6 17.8 5.6 33.8 0 12.2-.4 16.8-1.8 21.5-2.5 7.9-5.7 15.5-6.7 15.5-1.4 0-6.7-16.1-7.9-23.7-1.5-10-1.4-21.8.4-30.5 1.8-8.6 6.3-20.8 7.6-20.8.5 0 1.8 1.9 2.8 4.2m-320.4 17.3c-2.1 11.7-1.6 29.2 1.1 37.9.5 1.6.1 1.5-2.7-.8-12.1-9.7-24.1-16.8-33.6-19.6-5.2-1.6-5.4-2.6-1-3.4 7.4-1.4 24-10.8 33.2-18.9 2.2-1.9 4.1-3.4 4.2-3.3s-.4 3.8-1.2 8.1m36.5 1.2c6 4.5 17.2 10.3 23.5 12.3 6.1 1.9 6.1 2.6.3 4.5-10.4 3.4-21.2 9.6-31.2 17.9-4.6 3.8-4.9 3.9-4.3 1.6.4-1.4 1.2-6.8 1.9-12.2 1.1-9.1.5-19.5-1.9-31.3l-.6-3 3.4 3.1c1.9 1.7 5.9 4.9 8.9 7.1m117.7-8.3c-2.8 7.1-3.4 31.8-1.1 43.4l.7 3.4-6.4-5.2c-8.8-7.1-19.6-13.3-27.9-16-3.9-1.2-7-2.6-7-2.9 0-.4 2.1-1.2 4.7-1.9 9.4-2.6 27-12.9 33.2-19.6 2.6-2.8 4.6-3.5 3.8-1.2m37.5 10.2c6.9 4.6 21.2 11.4 24.2 11.4 3.5 0 1.3 1.8-4.6 4-10.1 3.6-19.2 8.8-26.9 15.2-3.9 3.3-7.2 5.8-7.4 5.6s0-2.1.5-4.3c2.4-10.4 2.1-28.9-.6-41l-.7-3 4.4 3.7c2.4 2.1 7.4 5.8 11.1 8.4m153.7.9c6.9 4.4 20.4 10.5 23.5 10.5 2.6 0 1.8 1.9-1.1 2.6-9.1 2.2-23.8 10.2-33 18.1l-5.6 4.8.9-5c1.2-6.4 1.2-31.3 0-38.5l-.9-5.5 4.7 4.3c2.5 2.3 7.7 6.3 11.5 8.7m-39.3-9.8c-2.9 9.9-3.4 27-1.1 37.7.8 3.8 1.3 7.1 1.1 7.4-.3.2-3.3-2.1-6.9-5.1q-11.7-9.9-27.3-15.6c-4.2-1.5-7.3-3-6.8-3.3s3.4-1.3 6.4-2.3c9.9-3.2 21.3-9.8 30-17.4 4-3.5 5.4-3.9 4.6-1.4M73.8 328.6c11.2 2.3 20.9 6.4 30.6 12.8 7.6 5.1 20.2 17.2 22.7 21.8.9 1.6.5 1.8-2.9 1.8-5.2 0-18.2-3.4-25.1-6.6-12.1-5.5-23-13.8-31.2-23.6-7.2-8.6-7-8.9 5.9-6.2m130.2-1c0 1.5-7.5 10.7-12.4 15.2-13.2 12-29.4 19.7-46.3 22-3.5.5-6.3.6-6.3.2 0-1.1 3.9-6 8.9-11.3 10.3-10.9 23.2-18.9 37.1-23.1 10.3-3 19-4.4 19-3m27.5 2.1c13.1 3.4 26.4 10.9 36.2 20.4 5.7 5.5 12.3 13.1 12.3 14.3s-7.3.6-14.9-1.4c-13.3-3.4-24.4-9.2-34.6-18-6.1-5.3-15.4-15.8-15.5-17.3 0-1.1 8.7 0 16.5 2M356 329c-2.1 3.8-14.4 16.2-20.5 20.5-11.8 8.4-26.1 14.1-38 15.2-5.9.5-6.8.4-5.9-.8 9.6-12.7 19.1-21 31.4-27.3 9.9-5.2 22.8-9.1 31.3-9.5 2.5-.1 2.7.1 1.7 1.9m28 .7c13.8 3.6 28 12 39.1 23.3 4.2 4.2 8.2 8.7 8.8 9.9 1.1 2 1 2.1-3.3 2.1-9.2 0-27.6-6.8-38.6-14.3-8.4-5.8-22-19.9-22-22.9 0-1.2 7.8-.3 16 1.9m125-1.9c0 1.8-10.3 13.2-16.6 18.3-8.5 6.9-17.5 11.9-27.7 15.3-7.5 2.6-20.7 4.6-20.7 3.2 0-1.6 8.3-11.5 13.2-15.7 10.4-8.9 19.6-14.2 31.1-17.9 9.6-3.1 20.7-4.8 20.7-3.2m-295.1 12.3c5.7 16.6 6.4 32.8 2.1 49.4-2.3 9.1-5.6 16.9-6.8 16.1-1.1-.7-4.5-10-6.8-18.6-2.1-8-2.4-27-.5-35.5 1.9-8.6 7.1-21.9 8.2-20.8.5.5 2.2 4.7 3.8 9.4m-152.2 1.3c6.6 19.8 5.8 42.9-2.1 60.1l-2.3 5-2.1-4.1c-4.3-8.4-6.6-20-6.6-33.4 0-6.9.6-15 1.2-18 1.9-8.4 6.4-20.1 7.6-19.7.6.2 2.6 4.7 4.3 10.1m303.2-5.4c4.6 10.6 6.4 21.5 5.8 35-.3 6.9-1.2 15-2 18-2.3 8.1-5.7 17-6.7 17-1.2 0-5.8-13.1-7.6-22.1-2-10.1-1.5-28.5 1.1-36.9 2.9-9.2 5.6-16 6.4-16 .5 0 1.8 2.2 3 5m153.9 4.2c7.1 20.9 6.6 40.1-1.5 59.8l-2.7 6.4-2.3-5.1c-8.8-19.4-9-46.4-.4-65.8 1.1-2.5 2.4-4.5 2.9-4.5s2.3 4.2 4 9.2M86.7 357.7c5.9 3.5 14 7.2 21.8 9.8 1.6.5.4 1.3-5.2 3.4-10.2 4-19.8 9.5-27.7 15.9l-6.9 5.5.7-3.9c2.8-16.6 2.8-24.8 0-40.9l-.7-4 5.5 5.1c3.1 2.7 8.7 6.9 12.5 9.1m110.2-6.5c-1.7 7.9-1.7 26.4 0 34.1.7 3.2 1 6.1.8 6.4-.3.3-1.6-.5-2.9-1.7-7.9-7.6-21.8-15.9-32.6-19.5-3-.9-5-2-4.5-2.4.4-.4 3.7-1.8 7.2-3.1 10.3-3.6 24.2-12.2 30-18.4 1.4-1.4 2.7-2.4 2.9-2.1.3.2-.1 3.3-.9 6.7m43.6 7.2c4.3 2.5 11.1 5.7 15.2 7.2l7.4 2.7-8.4 3.2c-10.4 3.9-20.7 9.9-27.6 16.1-2.8 2.5-5.4 4.4-5.7 4.1s0-2.2.6-4.4c2.6-9.2 2.3-29.3-.7-41.3-.5-2.1.2-1.7 5.4 2.8 3.3 2.9 9.5 7.2 13.8 9.6m108.9-7.7c-1.6 8-1.8 26.9-.4 33.3.6 2.5 1.3 5.6 1.6 7 .5 2.5.5 2.5-2.8-.6-8.5-8-20.2-15-32.6-19.7l-6.3-2.3 8.3-3.2c10.3-3.9 19-9 27.1-15.9 3.4-2.8 6.2-5.2 6.3-5.3 0 0-.5 3-1.2 6.7m39.3 5c7.1 4.9 20.5 11.3 23.7 11.3.8 0 1.8.4 2.1 1 .3.5.1 1-.5 1-2.3 0-16.6 6.2-22.3 9.7-3.3 2-8.7 5.9-12 8.6l-6 5 .7-3.4c1.6-7.7 1.8-31.3.3-38.1l-1.4-6.8 3.9 3.3c2.1 1.7 7.3 5.5 11.5 8.4m112.8-2.2c-1.9 11-1.9 20.2 0 30.1.8 4.3 1.3 8 1 8.2-.2.2-2.9-1.7-5.9-4.4-7.3-6.5-16.3-11.8-26.4-15.6-4.5-1.7-7.9-3.4-7.5-3.8.5-.4 4.2-1.9 8.3-3.5 9.5-3.6 19.1-9.3 26.1-15.5 3-2.6 5.5-4.7 5.7-4.5.1.1-.4 4.2-1.3 9M128 371.6c0 1.8-12 15-17.4 19.2-7.9 6.3-11.8 8.6-20.4 12.1-10.5 4.4-27.2 7.7-27.2 5.5 0-1.5 7.7-10.7 12.4-14.7 11.5-9.9 21.7-15.7 34.3-19.3 8.6-2.5 18.3-4 18.3-2.8m22.6 1.3c18.1 3.7 32 11.6 45.3 25.7 4.5 4.7 8.1 9.1 8.1 9.9 0 1.6-3.5 1.3-15.5-1.6-16-3.8-34.9-15.8-45-28.7-6.5-8.3-6.7-8.1 7.1-5.3m129.4-.6c0 2.2-13.8 16.4-20.4 21.1-7.1 5.1-14.8 9.1-22.6 11.8-6 2.1-21.1 5.1-21.8 4.3-1-.9 5.4-8.9 12.3-15.3 11.6-10.8 25.1-17.9 40.5-21.2 10.4-2.3 12-2.4 12-.7m27 1.4c9.4 2.2 22.4 8.6 30.9 15.1 7.2 5.5 18.1 17.4 18.1 19.7 0 .9-1.6 1-5.7.3-19.2-3-33.6-10-47-22.9-5.9-5.7-12.3-13.1-12.3-14.4 0-.9 7.2.1 16 2.2m126-2.1c0 2-12.2 15.1-18.3 19.8-9.2 7-24.2 14.2-33.2 16-13.1 2.6-13.5 2.6-13.5 1.2 0-2.2 12.2-15.4 18.5-20.1 10.9-8.1 21.7-12.9 35.6-16 7.2-1.5 10.9-1.8 10.9-.9m20.6.9c17.8 3.4 34.9 12.7 46.9 25.7 3.6 4 7.1 8 7.6 9 .8 1.6.5 1.8-2.4 1.8-5.6 0-21.8-4.5-28.8-8-11.2-5.6-23.6-15.9-30.7-25.4-3.9-5.1-3.7-5.2 7.4-3.1m-315.3 13.3c4 11.9 5.2 24.1 3.7 35.9-1.2 9.4-5.7 25.4-7.8 27.5-1.4 1.4-4.8-6.5-7.5-17.2-4-16.2-2.3-38 4.3-52.8 1.9-4.2 2.3-4.5 3.4-2.9.8.9 2.5 5.3 3.9 9.5m151-4.4c7.6 19 7.4 44.4-.4 62.7-1.2 2.7-2.7 4.8-3.3 4.6-1.6-.5-5.3-10.6-7.2-19.7-2.2-11.3-1.5-30.6 1.5-40.2 2.9-9.1 5-13.8 6-13.8.5 0 2 2.9 3.4 6.4m152.4.6c7.7 20.6 6.8 48.8-2.1 65.8l-1.4 2.6-1.5-3c-.8-1.6-2.7-6.7-4.3-11.4-2.5-7.6-2.7-10-2.8-23-.1-9.3.4-16.5 1.3-20 2-8.2 6.2-18.1 7.4-17.7.6.2 2.1 3.2 3.4 6.7M121 392.7c-1.9 6.7-2.3 26-.7 34.8.8 4.4 1.4 8.1 1.3 8.2s-3.5-2.5-7.6-5.8c-8-6.4-19.3-12.6-27.7-15.4-5.1-1.6-7.1-3.5-3.7-3.5 5.6 0 30.1-13.8 36.3-20.4 3.1-3.3 3.5-2.8 2.1 2.1m43.5 9.8c4.4 2.4 10.7 5.4 14.2 6.6 3.4 1.1 6.5 2.4 6.8 2.9s-1.9 1.6-4.7 2.6c-9.1 2.9-20.3 9.1-27.9 15.3-4.1 3.2-7.5 5.8-7.6 5.7s.4-3.8 1.2-8.1c1.9-10.4 1.9-20.5 0-30.2-.8-4.3-1.5-8.2-1.5-8.6 0-.5 2.6 1.4 5.8 4.2s9.4 7.1 13.7 9.6m110.1-12.8c-2.8 9-3.5 29.5-1.2 40 .7 3.5 1.1 6.3.9 6.3-.1 0-3.1-2.3-6.5-5.1-8.6-7-19.2-13-27.7-15.9-6.6-2.2-9.1-4-5.6-4 6 0 29.2-12.9 35.9-19.9 3.3-3.5 5-4 4.2-1.4m150.9 5.9c-1.8 8.7-1.9 24.9-.1 33.4.8 3.6 1.2 6.7 1 6.9s-2.5-1.6-5.1-4.1c-6-5.6-16.5-11.8-27.4-16.3-6.4-2.6-7.9-3.6-6.4-4.1 13.7-4.8 24.8-11 33.9-19 2.8-2.4 5.1-4.2 5.3-4.1.1.2-.4 3.5-1.2 7.3m42.2 6c5.8 3.5 13.2 6.8 21.8 9.8 1.5.6 0 1.5-6.7 4-10.3 3.9-17.6 8.2-26.5 15.5-6.5 5.3-6.6 5.4-6 2.4 2.9-14.8 3-24.2 0-41.8l-.6-4 5.6 5c3 2.8 8.6 6.8 12.4 9.1M304.5 394c8.6 6.8 18.6 12.6 26.5 15.1 3.6 1.2 6.9 2.5 7.4 3 .5.4-1.1 1.3-3.5 1.9-10.1 2.7-24.2 10.7-33.1 18.8-2.1 1.9-4.1 3.2-4.4 2.9s0-2.2.6-4.4c2.7-9.2 2.4-30.3-.6-40.6-.8-2.6.3-2.1 7.1 3.3m-221 25.1c13.6 4.5 22.6 10 33.1 20.4 5 4.9 9.7 10.1 10.4 11.4l1.2 2.4-6.4-.7c-13-1.3-29.1-8.1-40.7-17.1-8-6.2-18.1-17.2-18.1-19.7 0-1.6 10.9.2 20.5 3.3m120.5-3.4c0 2-9.7 12.8-16.2 18.2-12.2 10.1-33.6 19.1-45.6 19.1-3 0-3.2-.2-2.2-2.1 2.4-4.3 15.6-17.2 22.5-21.8 4-2.6 10.5-6.2 14.6-7.9 10.4-4.3 26.9-7.6 26.9-5.5m29.3 2.4c15.3 4.3 33.2 16.2 43 28.7l4.8 6.2h-3.9c-11.6 0-34.5-9.6-46.3-19.4-5.9-4.8-15.9-16.3-15.9-18.1 0-1.1 10.2.4 18.3 2.6m122.7-1.8c0 2.2-13.8 16.4-20.4 21.2-12.1 8.6-32.2 16.1-41.1 15.3l-3.6-.3 4.8-6c11.9-14.6 32-26.8 50.4-30.4 6.7-1.3 9.9-1.3 9.9.2m24.7.7c10.6 2.5 19 6.1 27.8 11.7 7 4.6 18.2 15.1 22.4 21l2.2 3.3h-3.4c-6.5 0-22.6-4.8-30.9-9.2-4.4-2.4-10.9-6.7-14.4-9.5-6.2-5.2-16.4-16.5-16.4-18.4 0-1.4 3.6-1.1 12.7 1.1m128.3-1.1c0 1.4-10.7 12.9-16.9 18.3-7.1 6.1-23.2 14.2-33.5 16.8-8.1 2.1-14.6 2.6-14.6 1.2 0-1.3 9.3-11.9 14-16 6.9-6 16.1-11.6 24.7-15.1 11.3-4.5 26.3-7.5 26.3-5.2M214.5 430c3.9 12.5 5.1 23.9 3.7 35.4-1.2 9.8-5.1 23.7-7.5 27-1.3 1.7-1.7 1.3-4.5-5.6-7.9-18.9-7.5-44.7.8-63.5 1.8-4 2.2-4.5 3.4-3.2.8.8 2.6 5.2 4.1 9.9m150.8-4.8c5.5 13.9 7.2 32.1 4.3 47-1.5 7.6-6.3 21.8-7.5 21.8-.9 0-5.5-12.1-7.2-19-1.8-7.1-1.8-32-.1-37.5 3.4-10.5 6.5-18.5 7.2-18.5.4 0 1.9 2.8 3.3 6.2m-168.2 13.4c-2.1 12.1-2.3 20.7-.7 30.6.9 5.4 1.6 10.1 1.6 10.4s-2.1-1.2-4.7-3.3c-10.7-8.7-22.6-15.5-32-18.3-4.2-1.3-5.8-3-2.7-3 5.6 0 24.7-10.3 33.5-18 3-2.6 5.5-4.7 5.7-4.5s-.1 2.9-.7 6.1m36.3 3.4c6.3 4.6 20.5 11.6 25.5 12.6 4.9 1 4.5 1.9-1.7 3.9-10.9 3.4-22.6 10.1-31 17.9-2.3 2.1-4.5 3.6-4.8 3.3s-.1-2.2.5-4.4c2.7-9.5 2.5-28-.6-41.3-.6-2.5-.5-2.5 2.8.6 1.9 1.7 6 5 9.3 7.4m115.9-2.8c-1.6 8.1-1.2 31.8.6 37.5.5 1.8.8 3.3.5 3.3-.2 0-3.5-2.6-7.4-5.8-7.9-6.7-15.8-11.2-26.8-15.2-4.5-1.7-7.1-3.1-6.2-3.4.8-.3 3.8-1.3 6.5-2.2 9.4-3 24.6-12.5 32.3-20.1.7-.7 1.5-1.3 1.6-1.3.2 0-.3 3.3-1.1 7.2m39.7 4.6c7.2 4.9 12.8 7.5 24.5 11.7 1.6.6 1.1 1-3 2.5-12.8 4.5-24 10.9-32.8 18.9l-4 3.6.7-4c2.9-17 2.9-25.9-.1-40.9l-.6-3.1 3.4 2.8c1.9 1.5 7.2 5.3 11.9 8.5M94.8 450c8.4 4 18 6.8 28.3 8.1l9 1.2 3.1 4.6c14.1 20.6 38 34.9 63.9 38.2l9.1 1.2 4.9 6.8c6.4 8.7 15.2 16.7 25.4 23 9.5 5.9 8.2 6.2-9.1 2.4-47.4-10.7-90.8-34.2-125.3-67.8-8.5-8.4-22.1-23.2-22.1-24.3 0-.3 1.6.4 3.5 1.6 2 1.2 6.2 3.5 9.3 5m391-1.8c-5.4 7-26.7 27.8-35.8 35.2-11.4 9.1-31.3 22.2-43.3 28.5-23.6 12.3-56 23.3-75.7 25.6l-5.5.7 6-3.8c11.5-7.2 22.3-17.2 28.6-26.5l3.2-4.6 9.2-1.1c17.3-2.2 32.5-8.6 46.1-19.4 7.1-5.6 15.5-14.7 18.9-20.6 1.6-2.7 2.4-3 11.1-4.1 11.4-1.4 22.7-4.9 31.9-10 3.9-2.1 7.4-3.9 7.8-4 .5 0-.6 1.8-2.5 4.1m-336 12.4c9.4 1.9 20.6 6.3 28.7 11.2 6.7 4.1 21 17.4 23.8 22.1l1.8 3.1h-3.9c-11.3 0-32.5-8.8-44.2-18.3-5.9-4.8-16.9-17.1-17-19 0-1.1 2.2-.9 10.8.9m128 3c-8.9 12.5-26.7 25.1-42.3 29.9-8.6 2.7-20.5 4.7-20.5 3.4 0-1 4.3-6.2 9.9-12.2 12.9-13.7 35.4-24.4 53.9-25.6 2.3-.1 2.2 0-1 4.5m29.2-2c8.7 2.1 22.9 9.1 31.3 15.5 6.8 5.1 19 18.5 18.2 19.9-1 1.6-16.3-1.7-26.5-5.7-13-5.1-30.9-19.1-37.3-29.3l-2.1-3.3 5 .7c2.7.4 7.8 1.4 11.4 2.2m124.2.5c-2.8 4.4-12.6 14.4-18.6 18.9-7.2 5.4-17.8 10.5-28 13.5-8.5 2.4-16.6 3.3-16.6 1.7 0-.4 2.3-3.5 5.1-7 5.5-6.7 18.1-16.8 25.8-20.6 9-4.6 24.9-9.3 31.9-9.5l2.4-.1zm-142.9 4.6c6.4 15.2 8.4 34.4 5.2 49.8-1.7 8.1-6.3 21.5-7.5 21.5-1.3 0-4.9-9.4-7-18.2-3.4-14.2-2.4-34.2 2.3-47.3 4.1-11.2 4.5-11.5 7-5.8m23.7 21c6.1 4.1 15.3 8.6 22 10.8l5.5 1.8-5 1.7c-12.7 4.4-22.9 10.2-31.9 18.1-2.6 2.3-4.9 3.9-5.2 3.6s-.1-2.2.5-4.4c2.7-9.4 2.4-31.4-.6-41.7-.4-1.4 1-.7 4.8 2.6 3 2.4 7.4 5.8 9.9 7.5m-38.7-5.5c-1.1 7.1-1 30 .1 36.8l.9 5.5-5.4-4.6c-8.2-7-16.4-11.9-26.9-16-7.3-2.9-9-3.9-7.5-4.5 7.5-2.6 15.7-6.1 19.5-8.2 5.2-3 15-10.2 16.9-12.6q3.6-4.35 2.4 3.6m-40.9 23.9c17.1 4.6 33.4 15.4 44 28.9l5 6.3-6.5-.6c-7.2-.7-21-4.7-28-8.3-8-4-20.8-14.3-26.4-21.4-3-3.7-5.5-7.1-5.5-7.5 0-1 9.2.4 17.4 2.6m123.6-1.7c0 2.2-13.6 16.2-20.5 21.1-11.7 8.4-30.5 15.5-40.7 15.5h-3.9l3.2-4.5c10.4-14.5 29.5-26.7 49.1-31.6 9.1-2.2 12.8-2.4 12.8-.5"></path>
  </g>
</svg>